<svg width="40" height="40" viewBox="0 0 40 40" fill="none" xmlns="http://www.w3.org/2000/svg">
<path d="M12.6221 1.50635C13.4106 2.34494 13.9302 3.35619 14.2285 4.4483C14.7131 6.22229 14.6821 8.20986 14.5192 10.2369C14.1929 14.2911 13.3801 18.5581 14.3285 21.2062C15.2188 23.6917 16.6463 25.1679 18.2301 25.8937C18.9113 26.206 19.6285 26.3788 20.354 26.4235C22.088 21.3388 21.7181 14.8498 18.8649 10.4639C22.6424 14.2322 24.4267 19.9224 23.274 25.8863L22.5881 26.1621C22.8022 26.0982 23.0132 26.0241 23.2203 25.94C26.4846 24.6221 29.1559 20.764 28.0445 15.1076C27.5339 12.5088 25.7816 8.84471 22.8492 6.00604C20.3124 3.55041 16.9252 1.6926 12.622 1.5065L12.6221 1.50635ZM34.807 15.8449C34.7414 16.7902 34.4447 17.683 33.982 18.4938C33.1732 19.911 31.9158 21.1311 30.5542 22.2902C27.8311 24.6081 24.6904 26.7555 23.6548 28.9478C22.6739 31.0246 22.6482 32.7956 23.1715 34.2043C23.395 34.8072 23.7296 35.3628 24.1578 35.8424C28.3538 33.7497 32.1055 29.5213 33.0492 25.0588C33.0552 29.7187 30.6563 34.3313 26.2817 37.3171C29.0788 38.4535 33.0225 37.7104 35.7911 33.5867C37.0738 31.676 38.2566 28.3288 38.1983 24.7683C38.1488 21.7458 37.2402 18.5785 34.8071 15.8451L34.807 15.8449ZM1.61376 21.5847C0.872903 25.1689 1.66907 28.3685 3.1372 31.011C4.86657 34.1235 7.56548 36.431 9.63134 37.444C14.0899 39.6306 17.8746 38.3009 19.729 35.9182C14.4485 35.5198 10.0656 32.725 7.74181 28.6867C10.7902 32.0795 16.1526 33.8656 20.8326 33.5793C20.9642 32.95 20.9767 32.3016 20.8693 31.6678C20.6182 30.1861 19.7076 28.6641 17.8199 27.3562C15.8274 25.9757 12.0352 25.6874 8.51814 25.0417C6.7597 24.7191 5.06134 24.2925 3.65251 23.4696C2.84603 22.9985 2.14361 22.3711 1.61392 21.5848L1.61376 21.5847Z" fill="#F0D8A8"/>
</svg>
