<svg width="34" height="34" viewBox="0 0 34 34" fill="none" xmlns="http://www.w3.org/2000/svg">
<path d="M25.335 2.15994L25.5275 2.54244L26.9675 6.37494C27.08 6.67494 27.3175 6.91494 27.62 7.02744L31.32 8.41744C32.945 9.02494 33.8175 10.7599 33.385 12.4024L33.28 12.7274L31.56 16.5349C31.4938 16.6801 31.4595 16.8379 31.4595 16.9974C31.4595 17.157 31.4938 17.3147 31.56 17.4599L33.195 21.0599C33.5371 21.8145 33.5874 22.6692 33.3362 23.4587C33.0851 24.2482 32.5502 24.9167 31.835 25.3349L31.4525 25.5274L27.62 26.9674C27.4715 27.0238 27.3367 27.1111 27.2246 27.2236C27.1126 27.3361 27.0258 27.4712 26.97 27.6199L25.58 31.3199C25.289 32.0968 24.7201 32.738 23.9835 33.1194C23.2468 33.5009 22.3949 33.5955 21.5925 33.3849L21.2675 33.2799L17.46 31.5599C17.3148 31.4937 17.1571 31.4595 16.9975 31.4595C16.8379 31.4595 16.6802 31.4937 16.535 31.5599L12.9375 33.1949C12.1829 33.537 11.3283 33.5873 10.5387 33.3362C9.74919 33.085 9.08074 32.5502 8.66249 31.8349L8.46999 31.4524L7.02749 27.6199C6.97116 27.4715 6.88383 27.3367 6.77132 27.2246C6.6588 27.1125 6.52369 27.0257 6.37499 26.9699L2.67499 25.5799C1.89817 25.2889 1.25696 24.72 0.875481 23.9834C0.494006 23.2468 0.399404 22.3948 0.609989 21.5924L0.714989 21.2674L2.43749 17.4599C2.50352 17.3147 2.53769 17.157 2.53769 16.9974C2.53769 16.8379 2.50352 16.6802 2.43749 16.5349L0.799989 12.9374C0.457684 12.1831 0.40699 11.3287 0.657692 10.5392C0.908395 9.74972 1.44271 9.08109 2.15749 8.66244L2.53999 8.46994L6.37499 7.02494C6.52394 6.96891 6.65921 6.88171 6.77173 6.76918C6.88426 6.65666 6.97146 6.52139 7.02749 6.37244L8.41749 2.67244C8.70848 1.89616 9.27697 1.25535 10.013 0.873923C10.7491 0.492496 11.6005 0.397548 12.4025 0.607439L12.7275 0.712439L16.535 2.43494C16.6802 2.50097 16.8379 2.53514 16.9975 2.53514C17.157 2.53514 17.3147 2.50097 17.46 2.43494L21.06 0.799939C21.8143 0.457635 22.6687 0.40694 23.4582 0.657643C24.2477 0.908345 24.9163 1.44267 25.335 2.15744V2.15994ZM22.41 11.2624L14.4425 20.3624L11.5375 17.4574C11.3264 17.2555 11.0447 17.1442 10.7526 17.1474C10.4605 17.1506 10.1813 17.2681 9.97471 17.4747C9.76815 17.6812 9.65069 17.9604 9.64747 18.2525C9.64425 18.5446 9.75554 18.8264 9.95749 19.0374L13.7075 22.7874C13.8157 22.8954 13.9449 22.98 14.0872 23.036C14.2294 23.0921 14.3816 23.1183 14.5344 23.1132C14.6872 23.108 14.8373 23.0716 14.9754 23.0061C15.1136 22.9406 15.2368 22.8475 15.3375 22.7324L24.0875 12.7324C24.2657 12.5075 24.3505 12.2227 24.3244 11.937C24.2983 11.6512 24.1634 11.3865 23.9474 11.1975C23.7315 11.0086 23.4511 10.9099 23.1645 10.922C22.8778 10.9341 22.6068 11.056 22.4075 11.2624H22.41Z" fill="#F0D8A8"/>
</svg>
