<svg width="40" height="40" viewBox="0 0 40 40" fill="none" xmlns="http://www.w3.org/2000/svg">
<g clip-path="url(#clip0_1_1031)">
<path d="M15.3846 1.53857C12.8538 1.53857 10.7692 3.62319 10.7692 6.15396V9.23088H13.8462V6.15396C13.8462 5.28781 14.5185 4.6155 15.3846 4.6155H24.6154C25.4815 4.6155 26.1538 5.28781 26.1538 6.15396V9.23088H29.2308V6.15396C29.2308 3.62319 27.1462 1.53857 24.6154 1.53857H15.3846ZM4.61538 10.7693C3.39131 10.7693 2.21737 11.2556 1.35181 12.1212C0.486262 12.9867 0 14.1607 0 15.3847L0 33.8463C0 35.0703 0.486262 36.2443 1.35181 37.1098C2.21737 37.9754 3.39131 38.4617 4.61538 38.4617H35.3846C37.9323 38.4617 40 36.394 40 33.8463V15.3847C40 14.1607 39.5137 12.9867 38.6482 12.1212C37.7826 11.2556 36.6087 10.7693 35.3846 10.7693H4.61538ZM20 15.2401C21.2315 15.2391 22.4511 15.4809 23.589 15.9517C24.7269 16.4225 25.7609 17.1131 26.6317 17.9838C27.5024 18.8546 28.193 19.8886 28.6638 21.0265C29.1346 22.1644 29.3764 23.384 29.3754 24.6155C29.3764 25.847 29.1346 27.0666 28.6638 28.2045C28.193 29.3424 27.5024 30.3764 26.6317 31.2472C25.7609 32.1179 24.7269 32.8085 23.589 33.2793C22.4511 33.7501 21.2315 33.9919 20 33.9909C18.7685 33.9919 17.5489 33.7501 16.411 33.2793C15.2731 32.8085 14.2391 32.1179 13.3683 31.2472C12.4976 30.3764 11.807 29.3424 11.3362 28.2045C10.8654 27.0666 10.6236 25.847 10.6246 24.6155C10.6236 23.384 10.8654 22.1644 11.3362 21.0265C11.807 19.8886 12.4976 18.8546 13.3683 17.9838C14.2391 17.1131 15.2731 16.4225 16.411 15.9517C17.5489 15.4809 18.7685 15.2391 20 15.2401ZM18.4615 20.0001V23.077H15.3846V26.154H18.4615V29.2309H21.5385V26.154H24.6154V23.077H21.5385V20.0001H18.4615Z" fill="#F0D8A8"/>
</g>
<defs>
<clipPath id="clip0_1_1031">
<rect width="40" height="40" fill="white"/>
</clipPath>
</defs>
</svg>
